<svg xmlns="http://www.w3.org/2000/svg" viewBox="0 0 256 256">
  <defs>
    <linearGradient id="leafGrad" x1="0%" y1="0%" x2="100%" y2="100%">
      <stop offset="0%" style="stop-color:#2d7d46"/>
      <stop offset="100%" style="stop-color:#1a4d2e"/>
    </linearGradient>
    <linearGradient id="mapGrad" x1="0%" y1="0%" x2="0%" y2="100%">
      <stop offset="0%" style="stop-color:#e8dcc8"/>
      <stop offset="100%" style="stop-color:#d4c4a8"/>
    </linearGradient>
    <linearGradient id="mapLine" x1="0%" y1="0%" x2="100%" y2="0%">
      <stop offset="0%" style="stop-color:#8b7355"/>
      <stop offset="100%" style="stop-color:#6b5344"/>
    </linearGradient>
  </defs>
  <!-- Hintergrund -->
  <rect width="256" height="256" fill="#f0f4ee"/>
  <!-- Pflanze (hinten): Stängel und Blätter -->
  <path d="M128 200 L128 120 Q132 100 140 90 Q148 80 128 70 Q108 80 116 90 Q124 100 128 120 Z" fill="url(#leafGrad)" opacity="0.95"/>
  <path d="M128 140 L100 180 L128 160 L156 180 Z" fill="url(#leafGrad)"/>
  <path d="M128 100 L90 140 L128 120 L166 140 Z" fill="url(#leafGrad)"/>
  <path d="M128 70 L95 100 L128 85 L161 100 Z" fill="url(#leafGrad)"/>
  <rect x="124" y="160" width="8" height="45" fill="#1a4d2e"/>
  <!-- Karte (vorne): gefaltetes Papier mit Linien -->
  <path d="M60 80 L196 80 L196 200 L60 200 Z" fill="url(#mapGrad)" stroke="#8b7355" stroke-width="3"/>
  <path d="M60 100 L196 100" stroke="url(#mapLine)" stroke-width="1.5" fill="none"/>
  <path d="M60 130 L170 130" stroke="url(#mapLine)" stroke-width="1" fill="none"/>
  <path d="M60 160 L180 160" stroke="url(#mapLine)" stroke-width="1" fill="none"/>
  <path d="M80 80 L80 200" stroke="url(#mapLine)" stroke-width="1" fill="none"/>
  <path d="M110 80 L110 200" stroke="url(#mapLine)" stroke-width="1" fill="none"/>
  <path d="M140 80 L140 200" stroke="url(#mapLine)" stroke-width="1" fill="none"/>
  <!-- Kleiner Pflanzensilhouette auf der Karte (Stil) -->
  <path d="M128 175 L118 195 L128 188 L138 195 Z" fill="url(#leafGrad)" opacity="0.9"/>
</svg>
